<?xml version="1.0" encoding="utf-8"?>
<!-- Generator: Adobe Illustrator 19.1.0, SVG Export Plug-In . SVG Version: 6.00 Build 0)  -->
<svg version="1.1" id="Layer_1" xmlns="http://www.w3.org/2000/svg" xmlns:xlink="http://www.w3.org/1999/xlink" x="0px" y="0px"
	 viewBox="0 0 15 15" style="enable-background:new 0 0 15 15;" xml:space="preserve">
<style type="text/css">
	.st0{fill:#FFFFFF;}
	.st1{fill:#F25B20;}
	.st2{fill:#F2F2F2;}
	.st3{fill:none;stroke:#FFFFFF;stroke-miterlimit:10;}
</style>
<path class="st0" d="M14,7.6c0-2.9-3-5.2-6.7-5.2S0.7,4.7,0.7,7.6c0,2,1.4,3.7,3.4,4.6L2.3,15c1.5-0.5,2.9-1.1,4.4-1.6
	c1.3-0.5,2.7-0.6,4-1.2c1.1-0.5,2-1.2,2.6-2.2C13.8,9.2,14,8.4,14,7.6z M7.3,11.9c-3.1,0-5.7-1.9-5.7-4.3s2.5-4.3,5.7-4.3
	S13,5.3,13,7.6S10.5,11.9,7.3,11.9z"/>
</svg>
