<?xml version="1.0" encoding="utf-8"?>
<!-- Generator: Adobe Illustrator 19.1.0, SVG Export Plug-In . SVG Version: 6.00 Build 0)  -->
<svg version="1.1" id="Layer_1" xmlns="http://www.w3.org/2000/svg" xmlns:xlink="http://www.w3.org/1999/xlink" x="0px" y="0px"
	 viewBox="0 0 30 30" style="enable-background:new 0 0 30 30;" xml:space="preserve">
<style type="text/css">
	.st0{fill:#FFFFFF;}
	.st1{fill:#F25B20;}
	.st2{fill:#F2F2F2;}
	.st3{fill:none;stroke:#4FAF9C;stroke-miterlimit:10;}
	.st4{fill:#4FAF9C;}
</style>
<g>
	<path class="st0" d="M9.6,17.5c-3.8,0-6.9-3.1-6.9-6.9s3.1-6.9,6.9-6.9c3.8,0,6.9,3.1,6.9,6.9S13.4,17.5,9.6,17.5z M9.6,4.8
		c-3.2,0-5.9,2.6-5.9,5.9s2.6,5.9,5.9,5.9c3.2,0,5.9-2.6,5.9-5.9S12.9,4.8,9.6,4.8z"/>
</g>
<g>
	<path class="st0" d="M14.4,14.3c-0.2,0.3-0.4,0.5-0.7,0.7L25.6,27l0.7-0.7L14.4,14.3z"/>
</g>
</svg>
